<svg width="272" height="30" viewBox="0 0 272 30" fill="none" xmlns="http://www.w3.org/2000/svg">
    <path d="M31.0239 20.5002C31.0421 24.5428 27.7249 27.957 23.5773 27.9489H4.95252V24.0518H23.5773C25.5369 24.0518 27.1289 22.4619 27.1289 20.4982C27.1289 18.5345 25.5389 16.9466 23.5773 16.9466H8.72231C5.89395 16.9466 3.4353 15.3708 2.17466 13.0495C0.984729 10.9687 0.984729 8.02312 2.17466 5.94427C3.4353 3.62299 5.89395 2.04719 8.72231 2.04719H27.0279V5.94427H8.72231C6.76064 5.94427 5.16868 7.53421 5.16868 9.4979C5.16868 11.4616 6.75862 13.0515 8.72231 13.0515H23.5773C27.7228 13.0435 31.0421 16.4577 31.0239 20.4982V20.5002Z" fill="#292F33"/>
    <path d="M23.5752 29.2116H1.75648V22.7892H23.5752C24.8358 22.7892 25.8621 21.7629 25.8621 20.5002C25.8621 19.2376 24.8358 18.2113 23.5752 18.2113H8.72025C2.15643 18.2375 -2.09015 11.0959 1.06347 5.34223C2.58877 2.53408 5.5242 0.788574 8.72025 0.788574H28.2885V7.21097H8.72025C5.68784 7.33421 5.67774 11.6636 8.72025 11.7909H23.5752C26.7692 11.7909 29.7027 13.5364 31.23 16.3466C34.3796 22.0962 30.137 29.2378 23.5752 29.2116ZM6.21311 26.6863H23.5752C26.9066 26.7448 29.8158 23.8377 29.7592 20.5002C29.8158 17.1628 26.9046 14.2576 23.5752 14.3162H8.72025C6.06563 14.3162 3.90396 12.1566 3.90396 9.50195C3.90396 6.84733 6.06361 4.68565 8.72025 4.68565H25.7631V3.3139H8.72025C4.06153 3.29571 1.04529 8.3605 3.2797 12.4475C4.3666 14.4455 6.44948 15.686 8.72025 15.686H23.5752C29.9552 15.9466 29.9633 25.0478 23.5752 25.3145H6.21311V26.6863Z" fill="#292F33"/>
    <path d="M41.4747 16.9547H55.9761C58.8045 16.9547 61.2631 15.3789 62.5238 13.0576C63.7137 10.9767 63.7137 8.03319 62.5238 5.95233C61.2631 3.63105 58.8045 2.05525 55.9761 2.05525H37.6706V5.95233H55.9761C57.9378 5.95233 59.5298 7.54227 59.5298 9.50596C59.5298 11.4697 57.9398 13.0596 55.9761 13.0596L36.5332 13.0859" fill="#292F33"/>
    <path d="M55.9761 18.2173H41.4747V15.692H55.9761C58.2448 15.692 60.3298 14.4516 61.4146 12.4556C62.4066 10.6676 62.4086 8.34434 61.4146 6.55843C60.3277 4.56039 58.2448 3.31996 55.9741 3.31996H38.9312V4.69171H55.9741C58.6287 4.69171 60.7904 6.85137 60.7904 9.50599C60.7904 12.1606 58.6307 14.3223 55.9741 14.3223L36.5331 14.3485L36.5291 11.8232L55.972 11.797C57.2367 11.797 58.263 10.7707 58.263 9.50599C58.263 8.24131 57.2367 7.21703 55.972 7.21703H36.4038V0.794634H55.972C60.6671 0.713824 64.7622 4.80485 64.6834 9.50599C64.7622 14.2051 60.6692 18.3002 55.972 18.2173H55.9761Z" fill="#292F33"/>
    <path d="M42.2884 16.8476V27.9429H37.9972V13.0778" fill="#292F33"/>
    <path d="M43.7524 29.2056H36.5333V13.0778H39.4612V26.6802H40.8244V16.8476H43.7524V29.2056Z" fill="#292F33"/>
    <path d="M73.8757 16.9547H88.3772C91.2055 16.9547 93.6642 15.3789 94.9248 13.0576C96.1147 10.9767 96.1147 8.03319 94.9248 5.95233C93.6642 3.63105 91.2055 2.05525 88.3772 2.05525H70.0716V5.95233H88.3772C90.3388 5.95233 91.9308 7.54227 91.9308 9.50596C91.9308 11.4697 90.3408 13.0596 88.3772 13.0596L68.9342 13.0859" fill="#292F33"/>
    <path d="M88.3771 18.2173H73.8757V15.692H88.3771C90.6459 15.692 92.7308 14.4516 93.8157 12.4556C94.8076 10.6676 94.8076 8.34434 93.8157 6.55843C92.7288 4.5604 90.6459 3.31996 88.3751 3.31996H71.3322V4.69171H88.3751C91.0298 4.69171 93.1894 6.85137 93.1894 9.50599C93.1894 12.1606 91.0298 14.3223 88.3751 14.3223L68.9342 14.3485L68.9301 11.8232L88.3731 11.797C89.6378 11.797 90.6641 10.7707 90.6641 9.50599C90.6641 8.24131 89.6378 7.21703 88.3751 7.21703H68.8069V0.794634H88.3751C93.0702 0.713824 97.1653 4.80485 97.0865 9.50599C97.1653 14.2051 93.0722 18.3002 88.3751 18.2173H88.3771Z" fill="#292F33"/>
    <path d="M74.3191 16.8476V27.9428H70.3034V13.0778" fill="#292F33"/>
    <path d="M76.3272 29.2116H68.9819V12.9242H71.96V26.6613H73.349V16.7314H76.3272V29.2116Z" fill="#292F33"/>
    <path d="M124.121 12.7303H106.08V17.2699H124.121V12.7303Z" fill="#292F33"/>
    <path d="M124.22 17.3709H105.977V12.6294H124.22V17.3709ZM106.179 17.1689H124.018V12.8314H106.179V17.1689Z" fill="#292F33"/>
    <path d="M157.435 28.1439C151.314 28.7985 145.691 29.1258 140.564 29.1258C138 29.1258 136.117 28.5237 134.913 27.3217C133.709 26.1196 133.109 24.2347 133.109 21.671V9.11512C133.109 6.36959 133.729 4.37357 134.974 3.13111C136.216 1.88865 138.21 1.26843 140.958 1.26843H155.081V6.76152H142.525C140.956 6.76152 140.172 7.54538 140.172 9.11512V21.671C140.172 22.2731 140.348 22.7498 140.701 23.1034C141.055 23.4569 141.531 23.6327 142.133 23.6327C145.142 23.6327 147.887 23.568 150.372 23.4367V17.7477H145.271V13.0385H157.433V28.1439H157.435Z" fill="#292F33"/>
    <path d="M161.358 1.26843H177.838C180.583 1.26843 182.577 1.89067 183.822 3.13111C185.064 4.37357 185.684 6.36757 185.684 9.11512V12.6465C185.684 14.8183 185.325 16.5052 184.605 17.7073C183.886 18.9114 182.743 19.7073 181.173 20.1013L186.078 28.7338H178.427L173.916 20.4952H168.423V28.7338H161.36V1.27045L161.358 1.26843ZM178.621 9.11512C178.621 7.54538 177.838 6.76152 176.268 6.76152H168.421V15.0001H176.268C177.838 15.0001 178.621 14.2163 178.621 12.6465V9.11512Z" fill="#292F33"/>
    <path d="M214.326 21.2791C214.326 24.0246 213.703 26.0206 212.461 27.2631C211.218 28.5056 209.224 29.1258 206.477 29.1258H196.668C193.923 29.1258 191.927 28.5056 190.684 27.2631C189.442 26.0206 188.822 24.0267 188.822 21.2791V8.7232C188.822 5.97767 189.442 3.98165 190.684 2.73919C191.927 1.49673 193.921 0.874495 196.668 0.874495H206.477C209.222 0.874495 211.218 1.49673 212.461 2.73919C213.703 3.98165 214.326 5.97565 214.326 8.7232V21.2791ZM207.263 8.7232C207.263 7.15346 206.479 6.3696 204.909 6.3696H198.24C196.67 6.3696 195.887 7.15346 195.887 8.7232V21.2791C195.887 22.8488 196.67 23.6327 198.24 23.6327H204.909C206.479 23.6327 207.263 22.8488 207.263 21.2791V8.7232Z" fill="#292F33"/>
    <path d="M242.967 1.26844V21.2791C242.967 24.0246 242.345 26.0206 241.102 27.2631C239.86 28.5056 237.866 29.1258 235.118 29.1258H226.094C223.348 29.1258 221.352 28.5056 220.11 27.2631C218.867 26.0206 218.245 24.0266 218.245 21.2791V1.26844H225.308V21.2791C225.308 22.8488 226.092 23.6327 227.661 23.6327H233.546C235.116 23.6327 235.9 22.8488 235.9 21.2791V1.26844H242.967Z" fill="#292F33"/>
    <path d="M247.674 1.26844H264.153C266.899 1.26844 268.893 1.89068 270.137 3.13111C271.38 4.37357 272 6.36757 272 9.11512V13.0385C272 15.784 271.378 17.78 270.137 19.0225C268.895 20.2649 266.901 20.8851 264.153 20.8851H254.737V28.7318H247.674V1.26844ZM264.937 9.11512C264.937 7.54538 264.153 6.76152 262.584 6.76152H254.737V15.3941H262.584C264.153 15.3941 264.937 14.6102 264.937 13.0405V9.11512Z" fill="#292F33"/>
</svg>
